PathFileType	4	(X/Y/Z)	C:/Users/opensim2020/Desktop/walking_exp_matlab/subject02_walking09_straight_03.trc																																																																																																																												
DataRate	CameraRate	NumFrames	NumMarkers	Units	OrigDataRate	OrigDataStartFrame	OrigNumFrames																																																																																																																								
100	100	7	42	mm	100	2309	262																																																																																																																								
Frame#	Time	LFHD			RFHD			LBHD			RBHD			C7			T10			CLAV			STRN			RBAK			LSHO			LUPA			LELB			LFRM			LWRA			LWRB			LFIN			RSHO			RUPA			RELB			RFRM			RWRA			RWRB			RFIN			LASI			RASI			LPSI			RPSI			LTHI			LKNE			LTIB			LANK			LHEE			LTOE			RTHI			RKNE			RTIB			RANK			RHEE			RTOE			*39			*40			*41		
		X1	Y1	Z1	X2	Y2	Z2	X3	Y3	Z3	X4	Y4	Z4	X5	Y5	Z5	X6	Y6	Z6	X7	Y7	Z7	X8	Y8	Z8	X9	Y9	Z9	X10	Y10	Z10	X11	Y11	Z11	X12	Y12	Z12	X13	Y13	Z13	X14	Y14	Z14	X15	Y15	Z15	X16	Y16	Z16	X17	Y17	Z17	X18	Y18	Z18	X19	Y19	Z19	X20	Y20	Z20	X21	Y21	Z21	X22	Y22	Z22	X23	Y23	Z23	X24	Y24	Z24	X25	Y25	Z25	X26	Y26	Z26	X27	Y27	Z27	X28	Y28	Z28	X29	Y29	Z29	X30	Y30	Z30	X31	Y31	Z31	X32	Y32	Z32	X33	Y33	Z33	X34	Y34	Z34	X35	Y35	Z35	X36	Y36	Z36	X37	Y37	Z37	X38	Y38	Z38	X39	Y39	Z39	X40	Y40	Z40	X41	Y41	Z41	X42	Y42	Z42
																																																																																																																															
132	1.31	-48.55635	1759.73962	-1063.86768	-64.45289	1740.82385	-921.82782	-147.77936	1648.44495	-1088.56653	-174.35469	1624.70166	-949.75415	-192.21483	1526.13098	-1013.09027	-254.72269	1255.78162	-1003.89215	-54.45816	1456.60583	-1022.16193	-8.13382	1280.81799	-1016.69543	-254.36258	1356.7699	-947.93561	-114.36852	1501.04395	-1192.25781	-96.04374	1302.47327	-1278.99963	-66.48604	1162.86707	-1292.50476	-12.84921	1041.09814	-1296.91003	76.48873	944.04797	-1250.80994	38.13192	929.40155	-1290.01917	79.56154	877.70941	-1288.39319	-113.04242	1489.9751	-825.90802	-155.80161	1302.06702	-744.22351	-153.10329	1155.22839	-725.85229	-119.59325	1039.35278	-704.47235	-59.40331	917.64618	-718.48804	-109.95404	909.55402	-692.75751	-68.48665	850.31219	-686.12	-39.90496	985.77063	-1149.40796	-21.90401	978.90955	-893.37885	-243.55759	1033.36267	-1053.396	-241.62883	1033.1073	-938.83984	-122.36162	672.35315	-1175.3916	-164.74571	473.54495	-1131.80615	-233.66679	290.62082	-1116.85486	-242.06058	70.10674	-1066.48706	-275.38745	44.09483	-1011.96362	-87.89126	33.31945	-1091.68591	-32.88583	687.16254	-797.81604	28.69077	487.31033	-822.54584	-1.25186	302.5636	-813.69415	-2.23549	108.86823	-840.8186	-20.89762	49.54059	-901.53937	146.6689	61.76037	-805.12683	-177.49379	1789.26892	-991.67865	2845.22217	1034.10242	-3360.31372	NaN	NaN	NaN
133	1.32	-40.95692	1758.96875	-1063.87195	-57.03922	1740.05896	-921.57709	-140.33421	1647.88037	-1089.26685	-167.28017	1624.00842	-950.28326	-184.8407	1525.5177	-1013.30304	-247.6618	1255.13074	-1003.71753	-47.1813	1455.7627	-1022.43378	-1.0831	1279.91272	-1016.99298	-247.16093	1356.1991	-947.89728	-107.16829	1500.3822	-1192.44446	-88.19199	1301.67078	-1278.89148	-57.08831	1162.44714	-1292.48206	-1.18191	1041.61499	-1296.33765	89.8765	946.69568	-1249.21643	51.84133	930.90021	-1288.33569	94.31978	879.98889	-1286.17981	-105.37411	1489.22656	-826.14368	-148.22922	1301.40955	-744.51819	-145.97614	1154.32385	-726.23578	-112.59416	1038.57434	-704.85693	-52.51664	916.84277	-719.08551	-103.35036	908.65027	-693.36035	-61.47084	849.66919	-686.56836	-33.58395	985.21466	-1149.64563	-14.65001	978.17291	-893.76526	-236.91663	1032.63	-1053.01721	-234.48686	1032.30334	-938.46246	-117.68922	671.8244	-1175.34583	-161.33293	473.20737	-1131.79175	-231.73528	290.82648	-1116.70142	-241.77525	70.3448	-1066.3335	-275.17731	44.29693	-1011.69666	-87.96008	33.15613	-1091.62659	-25.35241	686.05127	-798.86487	37.65086	486.56998	-824.86639	15.52598	300.79797	-814.35211	21.7892	107.10866	-840.27875	4.23495	47.0379	-900.60883	173.27065	65.49327	-807.4137	-170.06422	1788.44238	-991.99286	2845.15186	1034.16077	-3360.15747	NaN	NaN	NaN
134	1.33	-33.32589	1758.13147	-1063.81592	-49.72533	1739.20764	-921.47614	-132.54337	1646.90625	-1088.88953	-159.81308	1623.16235	-950.45392	-177.4211	1524.76611	-1013.32208	-240.57759	1254.46716	-1003.37628	-39.91713	1454.91125	-1022.57501	6.12424	1278.94995	-1017.22253	-239.72534	1355.52173	-947.70685	-100.073	1499.46875	-1192.42798	-80.30492	1301.13367	-1278.97949	-47.86402	1161.97937	-1292.46887	10.18901	1041.94983	-1295.30701	102.93653	949.09991	-1247.59314	65.23161	932.34863	-1286.61792	108.75091	882.49866	-1284.26953	-97.60919	1488.46753	-826.26123	-140.66042	1300.59985	-744.49286	-138.53369	1153.67651	-726.36462	-105.55893	1037.69421	-705.1593	-45.7878	915.888	-719.4751	-96.48125	907.6593	-693.69714	-54.63194	848.5426	-686.90491	-27.23423	984.57483	-1149.96033	-7.15934	977.41394	-894.17035	-230.15477	1031.88806	-1052.46143	-227.12999	1031.41455	-938.04248	-112.91985	671.22565	-1175.42249	-157.80684	472.81088	-1131.71265	-229.71672	291.05045	-1116.55835	-241.48476	70.61294	-1066.1582	-275.03888	44.71461	-1011.50958	-87.86239	33.11071	-1091.70483	-17.91951	684.7561	-799.83704	46.23838	485.85474	-827.05872	31.93089	299.42896	-815.05792	45.64515	105.78926	-840.02448	29.08982	45.04536	-899.59125	199.19043	69.78799	-809.9953	-162.46477	1787.7428	-992.03235	2845.1958	1034.25415	-3360.2915	NaN	NaN	NaN
135	1.34	-25.71386	1757.25183	-1063.70667	-42.14889	1738.45947	-921.74817	-125.01525	1646.2207	-1089.47656	-151.84508	1622.12781	-950.20892	-170.02237	1523.95288	-1013.22516	-233.28516	1253.67993	-1003.01086	-32.56807	1453.98694	-1022.62274	13.38093	1277.97717	-1017.42157	-232.26611	1354.68213	-947.51263	-92.85494	1498.68176	-1192.42859	-72.5142	1300.22559	-1278.69519	-38.90475	1161.48303	-1292.41394	21.23887	1042.25427	-1294.43481	115.61061	951.45319	-1245.948	78.27695	933.72217	-1284.90161	122.78556	884.79175	-1282.22083	-89.94315	1487.5238	-826.26593	-132.86961	1299.62537	-744.21716	-130.94958	1152.73254	-726.61438	-98.54873	1036.60547	-705.51575	-38.95314	914.63678	-719.78308	-89.52081	906.78979	-693.92383	-48.05061	847.29498	-687.35437	-20.54012	983.76123	-1150.31885	0.38353	976.63635	-894.48328	-223.26231	1031.13062	-1051.91003	-219.68681	1030.52197	-937.46185	-108.07653	670.64368	-1175.46509	-154.14081	472.43015	-1131.5918	-227.68059	291.39746	-1116.35327	-241.22173	70.88193	-1065.98621	-275.01086	45.31964	-1011.37109	-87.77795	33.07122	-1091.82288	-10.91022	683.21936	-800.83868	54.80674	485.09335	-829.24957	47.85131	298.39798	-815.8728	68.73563	105.10987	-839.90094	52.68861	43.76615	-898.76526	224.32922	74.56284	-812.84235	-154.91624	1786.69519	-992.00812	2845.29858	1034.12744	-3360.3457	NaN	NaN	NaN
136	1.35	-18.0738	1756.32886	-1063.53503	-34.63879	1737.43469	-921.25189	-117.22594	1645.15442	-1088.94458	-144.54489	1621.13171	-950.3114	-162.52872	1523.01294	-1012.99426	-225.90436	1252.8252	-1002.53723	-25.16891	1453.0144	-1022.57172	20.6956	1276.9657	-1017.51721	-224.79733	1353.85815	-947.30176	-85.68516	1497.70044	-1192.34058	-64.76615	1299.4624	-1278.31067	-30.10797	1160.76636	-1292.27173	31.89245	1042.59961	-1293.41772	127.91678	953.7345	-1244.37024	90.8655	935.00061	-1283.11267	136.37752	887.03204	-1280.23401	-82.4526	1486.61438	-826.22815	-125.3124	1298.48682	-744.18176	-123.44289	1151.75159	-726.50891	-91.11205	1035.44385	-705.63037	-32.24514	913.16461	-719.98407	-82.64586	905.56836	-694.15948	-41.09811	846.16748	-687.58289	-13.90105	982.94073	-1150.72168	8.14674	975.78766	-894.94794	-216.25555	1030.29846	-1051.16199	-212.16068	1029.58923	-936.78571	-103.149	670.00769	-1175.40747	-150.46288	472.07761	-1131.48438	-225.55934	291.55386	-1116.23657	-240.93266	71.23474	-1065.84558	-274.7706	45.79826	-1011.11688	-87.89951	32.95264	-1091.72717	-3.69716	681.85687	-801.71332	63.65739	484.30731	-831.43158	63.29014	297.66522	-816.70447	90.94247	104.92065	-839.98773	76.63773	42.99903	-898.25818	248.53075	79.48436	-815.92303	-147.27408	1785.96033	-991.96429	2845.2229	1034.08582	-3360.31445	NaN	NaN	NaN
137	1.36	-10.36572	1755.35779	-1063.25085	-26.89128	1736.28467	-921.03101	-109.51358	1644.20105	-1088.76074	-136.64961	1620.17407	-950.04773	-155.04482	1522.08716	-1012.6723	-218.44507	1251.9198	-1001.92169	-17.67937	1452.05151	-1022.51642	27.99422	1275.9209	-1017.53021	-217.22301	1352.9198	-946.87512	-78.47944	1496.78076	-1192.10425	-56.99467	1298.62134	-1278.02185	-21.50068	1160.10352	-1292.01135	42.46106	1042.57959	-1292.56885	139.99207	955.8996	-1242.78931	103.08926	936.25323	-1281.42871	149.4651	889.14911	-1278.17603	-74.6912	1485.60315	-826.00482	-116.65105	1297.52197	-743.85852	-115.7666	1150.69836	-726.52802	-83.72063	1034.24438	-705.57501	-24.9922	912.20996	-720.1142	-75.53048	904.41724	-694.19806	-34.269	844.84906	-687.81952	-7.9147	981.98755	-1150.98596	15.9465	974.87402	-895.22241	-209.08687	1029.40723	-1050.39636	-204.36911	1028.53064	-936.10199	-98.18504	669.37079	-1175.33484	-146.7038	471.69458	-1131.30896	-223.44302	291.95917	-1115.97156	-240.63847	71.60854	-1065.65149	-274.41309	46.17582	-1010.72205	-87.80677	32.8517	-1091.78577	3.29879	680.36835	-802.50781	72.03188	483.56259	-833.3053	78.16428	297.16949	-817.56207	112.64349	105.20946	-840.22504	98.89144	42.81922	-897.93744	271.759	84.32807	-819.4176	-139.82236	1785.02917	-991.91614	2845.93213	1034.14587	-3357.21704	NaN	NaN	NaN
138	1.37	-2.68641	1754.41711	-1062.99316	-19.49979	1735.31592	-920.38556	-101.79031	1643.21985	-1088.58325	-129.08681	1619.17737	-949.89447	-147.48402	1520.96191	-1012.30994	-210.96883	1250.9895	-1001.19379	-10.11644	1451.01404	-1022.30859	35.51252	1274.83789	-1017.48975	-209.65178	1351.9563	-946.36334	-71.30451	1495.82361	-1191.95532	-49.32062	1297.81982	-1278.00146	-13.0497	1159.33887	-1291.7251	52.62877	1042.79944	-1291.41699	151.42085	957.96234	-1241.23315	114.89059	937.29932	-1279.61121	162.13272	891.12738	-1276.17871	-66.59322	1484.5553	-825.65167	-109.87	1296.38196	-743.68164	-107.92252	1149.59351	-726.31586	-76.04444	1033.2063	-705.48254	-17.99465	910.71655	-720.18646	-68.42745	903.29114	-694.07855	-27.50483	843.39331	-687.95282	-0.98459	981.01672	-1151.14795	23.80575	973.82928	-895.52777	-201.75002	1028.44946	-1049.56604	-196.59381	1027.52307	-935.2879	-93.09295	668.70221	-1175.23633	-142.9388	471.33441	-1131.12109	-221.37387	292.25394	-1115.67627	-240.36951	72.02485	-1065.44348	-274.19867	46.75128	-1010.47534	-87.8709	32.79747	-1092.09155	10.22766	678.86237	-803.22186	80.34472	482.65387	-835.17316	92.5206	296.75833	-818.60938	133.41142	105.69994	-840.67957	120.91489	42.87106	-898.08435	293.75287	89.15884	-822.87122	-132.02464	1784.09106	-991.54828	2845.17651	1034.26184	-3360.2688	NaN	NaN	NaN
